<svg xmlns="http://www.w3.org/2000/svg" viewBox="0 0 380 280" width="380" height="280">
  <defs>
    <ellipse id="eul" cx="0" cy="0" rx="9" ry="12"/>
  </defs>

  <!-- tangkai utama melengkung, gaya line-art tipis -->
  <g fill="none" stroke="#8aa294" stroke-width="2" stroke-linecap="round" opacity="0.9">
    <path d="M40 280 Q 52 196 110 150"/>
    <path d="M96 280 Q 110 218 158 186"/>
    <path d="M150 280 Q 170 240 214 222"/>
    <path d="M18 280 Q 14 230 36 196"/>
  </g>

  <!-- daun bulat eucalyptus berpasangan di sepanjang tangkai -->
  <g fill="#a8bcae" opacity="0.78">
    <use href="#eul" transform="translate(58 236) rotate(-30)"/>
    <use href="#eul" transform="translate(82 232) rotate(34) scale(0.92)"/>
    <use href="#eul" transform="translate(72 204) rotate(-24) scale(0.9)"/>
    <use href="#eul" transform="translate(98 196) rotate(40) scale(0.85)"/>
    <use href="#eul" transform="translate(92 172) rotate(-18) scale(0.8)"/>
    <use href="#eul" transform="translate(116 162) rotate(44) scale(0.74)"/>
    <use href="#eul" transform="translate(110 150) rotate(0) scale(0.6)"/>
  </g>
  <g fill="#8aa294" opacity="0.72">
    <use href="#eul" transform="translate(112 246) rotate(-34) scale(0.9)"/>
    <use href="#eul" transform="translate(134 238) rotate(30) scale(0.84)"/>
    <use href="#eul" transform="translate(128 214) rotate(-22) scale(0.8)"/>
    <use href="#eul" transform="translate(152 204) rotate(38) scale(0.74)"/>
    <use href="#eul" transform="translate(158 188) rotate(6) scale(0.58)"/>
  </g>
  <g fill="#c2d2c6" opacity="0.7">
    <use href="#eul" transform="translate(168 252) rotate(-28) scale(0.8)"/>
    <use href="#eul" transform="translate(188 246) rotate(32) scale(0.74)"/>
    <use href="#eul" transform="translate(184 230) rotate(-16) scale(0.66)"/>
    <use href="#eul" transform="translate(206 226) rotate(36) scale(0.58)"/>
    <use href="#eul" transform="translate(28 244) rotate(-36) scale(0.7)"/>
    <use href="#eul" transform="translate(40 218) rotate(24) scale(0.64)"/>
    <use href="#eul" transform="translate(34 198) rotate(-12) scale(0.55)"/>
  </g>

  <!-- ranting biji emas -->
  <g stroke="#c6ad77" stroke-width="1.3" fill="#c6ad77" opacity="0.85">
    <path d="M210 268 q 22 -26 14 -56" fill="none"/>
    <circle cx="224" cy="212" r="2.6"/><circle cx="228" cy="232" r="2.2"/><circle cx="222" cy="250" r="2"/>
    <path d="M10 252 q -4 -34 16 -60" fill="none"/>
    <circle cx="26" cy="192" r="2.4"/><circle cx="16" cy="214" r="2"/>
  </g>

  <!-- buah eucalyptus kecil -->
  <g fill="#7e978a" opacity="0.8">
    <circle cx="120" cy="138" r="3.4"/><circle cx="130" cy="132" r="2.8"/>
    <circle cx="166" cy="176" r="3"/><circle cx="218" cy="214" r="2.8"/>
  </g>
</svg>
