<svg xmlns="http://www.w3.org/2000/svg" viewBox="0 0 380 280" width="380" height="280">
  <defs>
    <ellipse id="eult" cx="0" cy="0" rx="8.5" ry="11.5"/>
  </defs>

  <!-- tangkai menjuntai dari atas -->
  <g fill="none" stroke="#8aa294" stroke-width="1.9" stroke-linecap="round" opacity="0.9">
    <path d="M36 0 Q 48 70 104 112"/>
    <path d="M92 0 Q 104 54 148 84"/>
    <path d="M148 0 Q 164 36 206 52"/>
  </g>

  <!-- daun berpasangan -->
  <g fill="#a8bcae" opacity="0.75">
    <use href="#eult" transform="translate(54 44) rotate(-32)"/>
    <use href="#eult" transform="translate(76 50) rotate(30) scale(0.9)"/>
    <use href="#eult" transform="translate(70 74) rotate(-22) scale(0.84)"/>
    <use href="#eult" transform="translate(94 84) rotate(38) scale(0.78)"/>
    <use href="#eult" transform="translate(92 100) rotate(-10) scale(0.66)"/>
    <use href="#eult" transform="translate(104 112) rotate(14) scale(0.55)"/>
  </g>
  <g fill="#8aa294" opacity="0.7">
    <use href="#eult" transform="translate(106 28) rotate(-30) scale(0.86)"/>
    <use href="#eult" transform="translate(126 38) rotate(32) scale(0.8)"/>
    <use href="#eult" transform="translate(124 60) rotate(-18) scale(0.72)"/>
    <use href="#eult" transform="translate(146 70) rotate(36) scale(0.64)"/>
    <use href="#eult" transform="translate(148 84) rotate(8) scale(0.52)"/>
  </g>
  <g fill="#c2d2c6" opacity="0.68">
    <use href="#eult" transform="translate(162 18) rotate(-26) scale(0.74)"/>
    <use href="#eult" transform="translate(180 28) rotate(30) scale(0.66)"/>
    <use href="#eult" transform="translate(182 42) rotate(-12) scale(0.56)"/>
    <use href="#eult" transform="translate(204 50) rotate(28) scale(0.5)"/>
  </g>

  <!-- biji emas -->
  <g stroke="#c6ad77" stroke-width="1.2" fill="#c6ad77" opacity="0.82">
    <path d="M216 12 q 14 28 -2 54" fill="none"/>
    <circle cx="214" cy="66" r="2.4"/><circle cx="220" cy="44" r="2"/><circle cx="218" cy="26" r="1.8"/>
  </g>
  <g fill="#7e978a" opacity="0.78">
    <circle cx="114" cy="124" r="3"/><circle cx="124" cy="118" r="2.5"/>
    <circle cx="158" cy="94" r="2.6"/>
  </g>
</svg>
