<svg xmlns="http://www.w3.org/2000/svg" viewBox="0 0 380 280" width="380" height="280">
  <defs>
    <ellipse id="skp" cx="0" cy="-18" rx="10" ry="17"/>
    <g id="sakura5">
      <use href="#skp" transform="rotate(0)"/><use href="#skp" transform="rotate(72)"/>
      <use href="#skp" transform="rotate(144)"/><use href="#skp" transform="rotate(216)"/>
      <use href="#skp" transform="rotate(288)"/>
    </g>
    <g id="bud"><ellipse cx="0" cy="0" rx="5.5" ry="8"/></g>
  </defs>

  <!-- ranting cokelat -->
  <g fill="none" stroke="#7d5a48" stroke-linecap="round">
    <path d="M14 280 Q 40 200 96 168 Q 150 138 208 142" stroke-width="5"/>
    <path d="M60 226 Q 96 218 124 230" stroke-width="3"/>
    <path d="M96 168 Q 120 186 158 192" stroke-width="3"/>
    <path d="M150 146 Q 168 162 196 168" stroke-width="2.4"/>
    <path d="M40 254 Q 64 252 84 262" stroke-width="2.6"/>
  </g>

  <!-- bunga sakura -->
  <use href="#sakura5" transform="translate(96 168)" fill="#f3c6d0" fill-opacity="0.88"/>
  <circle cx="96" cy="168" r="7.5" fill="#c6ad77" fill-opacity="0.95"/>

  <use href="#sakura5" transform="translate(160 192) scale(0.86) rotate(24)" fill="#eeb1c0" fill-opacity="0.85"/>
  <circle cx="160" cy="192" r="6.5" fill="#c6ad77" fill-opacity="0.95"/>

  <use href="#sakura5" transform="translate(124 232) scale(0.78) rotate(-16)" fill="#f7dde4" fill-opacity="0.9"/>
  <circle cx="124" cy="232" r="6" fill="#c6ad77" fill-opacity="0.95"/>

  <use href="#sakura5" transform="translate(208 144) scale(0.7) rotate(40)" fill="#f3c6d0" fill-opacity="0.82"/>
  <circle cx="208" cy="144" r="5.5" fill="#c6ad77" fill-opacity="0.95"/>

  <use href="#sakura5" transform="translate(56 230) scale(0.62) rotate(12)" fill="#eeb1c0" fill-opacity="0.8"/>
  <circle cx="56" cy="230" r="5" fill="#c6ad77" fill-opacity="0.95"/>

  <use href="#sakura5" transform="translate(196 170) scale(0.5)" fill="#f7dde4" fill-opacity="0.78"/>

  <!-- kuncup -->
  <g fill="#d98ba0" opacity="0.85">
    <use href="#bud" transform="translate(228 142) rotate(30)"/>
    <use href="#bud" transform="translate(86 262) rotate(-14) scale(0.8)"/>
    <use href="#bud" transform="translate(178 206) rotate(50) scale(0.7)"/>
  </g>

  <!-- kelopak jatuh & serbuk emas -->
  <g fill="#f3c6d0" opacity="0.75">
    <ellipse cx="246" cy="196" rx="6" ry="3.4" transform="rotate(-24 246 196)"/>
    <ellipse cx="262" cy="236" rx="5" ry="2.8" transform="rotate(18 262 236)"/>
    <ellipse cx="222" cy="258" rx="5.5" ry="3" transform="rotate(-40 222 258)"/>
  </g>
  <g fill="#c6ad77" opacity="0.8">
    <circle cx="234" cy="170" r="2.4"/><circle cx="190" cy="216" r="2"/>
    <circle cx="146" cy="158" r="2"/><circle cx="250" cy="218" r="1.8"/>
  </g>
</svg>
